<svg width="24" height="24" viewBox="0 0 24 24" fill="none" xmlns="http://www.w3.org/2000/svg">
<g clip-path="url(#clip0)">
<path d="M9.777 2L21.171 13.395L13.391 21.172L2 9.781V2H9.777V2ZM10.605 0H0V10.609L13.391 24L24 13.396L10.605 0V0ZM6.501 5C6.901 5 7.277 5.156 7.56 5.438C8.145 6.024 8.145 6.977 7.561 7.561C7.276 7.844 6.9 8 6.5 8C6.1 8 5.723 7.844 5.44 7.562C4.855 6.976 4.854 6.024 5.439 5.439C5.723 5.156 6.1 5 6.501 5V5ZM6.501 4C5.86 4 5.221 4.244 4.732 4.732C3.755 5.708 3.755 7.29 4.732 8.268C5.221 8.756 5.86 9 6.5 9C7.14 9 7.779 8.756 8.268 8.267C9.245 7.29 9.245 5.709 8.268 4.73C7.78 4.244 7.141 4 6.501 4V4Z" fill="#5F6368"/>
</g>
<defs>
<clipPath id="clip0">
<rect width="24" height="24" fill="white"/>
</clipPath>
</defs>
</svg>
