<svg width="24" height="24" viewBox="0 0 24 24" fill="none" xmlns="http://www.w3.org/2000/svg">
<path d="M19 6.734C19 10.898 15.25 13.714 15.25 17H13.258C13.259 14.921 14.255 13.174 15.226 11.487C16.138 9.902 17 8.404 17 6.734C17 3.626 14.483 2 11.996 2C9.513 2 7 3.626 7 6.734C7 8.404 7.862 9.902 8.774 11.487C9.745 13.174 10.74 14.921 10.741 17H8.75C8.75 13.714 5 10.897 5 6.734C5 2.391 8.498 0 11.996 0C15.498 0 19 2.394 19 6.734ZM15 18.5C15 18.776 14.776 19 14.5 19H9.5C9.224 19 9 18.776 9 18.5C9 18.224 9.224 18 9.5 18H14.5C14.776 18 15 18.224 15 18.5ZM15 20.5C15 20.776 14.776 21 14.5 21H9.5C9.224 21 9 20.776 9 20.5C9 20.224 9.224 20 9.5 20H14.5C14.776 20 15 20.224 15 20.5ZM13.299 23.659C13.109 23.875 12.834 24 12.546 24H11.453C11.165 24 10.891 23.875 10.701 23.659L9.25 22H14.75L13.299 23.659V23.659Z" fill="#5F6368"/>
</svg>
