<svg width="24" height="24" viewBox="0 0 24 24" fill="none" xmlns="http://www.w3.org/2000/svg">
<g clip-path="url(#clip0)">
<path d="M8.997 13.985C9.007 15.089 8.117 15.993 7.011 16C5.906 16.009 5.006 15.12 5 14.016C4.99 12.911 5.879 12.011 6.982 12C8.088 11.993 8.991 12.883 8.997 13.985ZM8.019 9.99903C6.915 10.007 6.011 9.11903 6.004 8.01203C5.995 6.90903 6.881 6.00803 7.988 6.00103C9.09 5.99103 9.996 6.87803 10 7.98303C10.012 9.09003 9.12 9.98903 8.019 9.99903ZM16 5.98503C16.004 7.08703 15.119 7.99303 14.015 8.00003C12.909 8.01003 12.007 7.12103 12 6.01703C11.989 4.91103 12.878 4.01103 13.985 4.00203C15.086 3.99603 15.99 4.88303 16 5.98503ZM4 21.832C8.587 22.212 6.944 17.34 11.188 17.295L13.026 18.829C13.484 24.366 6.711 25.601 4 21.832ZM18.065 14.717C19.492 12.478 23.911 4.96903 23.911 4.96903C24.264 4.34603 23.482 3.69603 22.936 4.15603C22.936 4.15603 16.364 9.87003 14.425 11.681C12.893 13.113 12.886 13.767 12.39 16.128L14.07 17.528C16.297 16.613 16.938 16.488 18.065 14.717ZM5.443 19.523C3.359 17.703 2.023 15.044 2 12.076C1.956 6.56603 6.406 2.04603 11.92 2.00103C15.758 1.98003 18.399 3.90603 18.416 5.44803L20.079 3.99203C19.069 1.76903 15.897 -0.0529708 11.903 2.91636e-05C5.28 0.0550292 -0.0519967 5.46603 3.29353e-06 12.092C0.0230033 15.004 1.083 17.662 2.823 19.727C3.781 20.219 4.946 20.056 5.443 19.523ZM18.24 17.617C19.299 19.587 16.889 20.987 14.695 21.609C14.391 22.521 13.892 23.33 13.321 23.92C18.576 23.329 22.382 19.616 19.587 16.031C19.128 16.716 18.69 17.228 18.24 17.617Z" fill="#5F6368"/>
</g>
<defs>
<clipPath id="clip0">
<rect width="24" height="24" fill="white"/>
</clipPath>
</defs>
</svg>
