<svg width="24" height="24" viewBox="0 0 24 24" fill="none" xmlns="http://www.w3.org/2000/svg">
<path d="M11 17H13V22L11 24V17ZM18 15H6C6 11.872 6.091 10.256 7.874 7.724C8.425 6.941 8.789 6.424 8.789 5.351C8.789 2.979 7 3.656 7 0H17C17 3.616 15.211 3.005 15.211 5.35C15.211 6.423 15.575 6.94 16.126 7.724C17.911 10.259 18 11.878 18 15ZM8.032 13H15.968C15.67 8.624 13.212 8.858 13.212 5.351C13.211 3.746 13.733 3 14.483 2H9.517C10.267 3 10.789 3.745 10.789 5.35C10.789 8.837 8.329 8.64 8.032 13Z" fill="#5F6368"/>
</svg>
