<svg width="12" height="24" viewBox="0 0 12 24" fill="none" xmlns="http://www.w3.org/2000/svg">
<path d="M5 17H7V22L5 24V17ZM12 15H0C0 11.872 0.0910001 10.256 1.874 7.724C2.425 6.941 2.789 6.424 2.789 5.351C2.789 2.979 1 3.656 1 0H11C11 3.616 9.211 3.005 9.211 5.35C9.211 6.423 9.575 6.94 10.126 7.724C11.911 10.259 12 11.878 12 15ZM2.032 13H9.968C9.67 8.624 7.212 8.858 7.212 5.351C7.211 3.746 7.733 3 8.483 2H3.517C4.267 3 4.789 3.745 4.789 5.35C4.789 8.837 2.329 8.64 2.032 13Z" fill="#5F6368"/>
</svg>
