<svg width="24" height="24" viewBox="0 0 24 24" fill="none" xmlns="http://www.w3.org/2000/svg">
<path d="M9 19C9 19.552 8.552 20 8 20C7.448 20 7 19.552 7 19V9C7 8.448 7.448 8 8 8C8.552 8 9 8.448 9 9V19ZM13 19C13 19.552 12.552 20 12 20C11.448 20 11 19.552 11 19V9C11 8.448 11.448 8 12 8C12.552 8 13 8.448 13 9V19ZM17 19C17 19.552 16.552 20 16 20C15.448 20 15 19.552 15 19V9C15 8.448 15.448 8 16 8C16.552 8 17 8.448 17 9V19ZM22 2V4H2V2H7.711C8.611 2 9.342 0.901 9.342 0H14.657C14.657 0.901 15.387 2 16.288 2H22ZM19 6V22H5V6H3V24H21V6H19Z" fill="#5F6368"/>
</svg>
