<svg width="20" height="24" viewBox="0 0 20 24" fill="none" xmlns="http://www.w3.org/2000/svg">
<path d="M7 19C7 19.552 6.552 20 6 20C5.448 20 5 19.552 5 19V9C5 8.448 5.448 8 6 8C6.552 8 7 8.448 7 9V19ZM11 19C11 19.552 10.552 20 10 20C9.448 20 9 19.552 9 19V9C9 8.448 9.448 8 10 8C10.552 8 11 8.448 11 9V19ZM15 19C15 19.552 14.552 20 14 20C13.448 20 13 19.552 13 19V9C13 8.448 13.448 8 14 8C14.552 8 15 8.448 15 9V19ZM20 2V4H0V2H5.711C6.611 2 7.342 0.901 7.342 0H12.657C12.657 0.901 13.387 2 14.288 2H20ZM17 6V22H3V6H1V24H19V6H17Z" fill="#5F6368"/>
</svg>
